<?xml version="1.0" standalone="no"?>
<!DOCTYPE svg PUBLIC "-//W3C//DTD SVG 20010904//EN"
 "http://www.w3.org/TR/2001/REC-SVG-20010904/DTD/svg10.dtd">
<svg version="1.0" xmlns="http://www.w3.org/2000/svg" width="500.000000pt" height="500.000000pt" viewBox="0 0 500.000000 500.000000" preserveAspectRatio="xMidYMid meet">

<g transform="translate(0.000000,500.000000) scale(0.100000,-0.100000)" fill="#000000" stroke="none">
<path d="M1880 3435 c-117 -19 -308 -73 -486 -138 -133 -48 -162 -55 -255 -61
-189 -13 -362 -36 -386 -51 -27 -18 -29 -42 -7 -74 15 -21 14 -26 -16 -92 -19
-42 -34 -93 -37 -129 -5 -51 -2 -67 26 -127 l32 -68 -25 -20 c-14 -12 -26 -26
-26 -31 0 -13 91 -63 170 -94 38 -15 68 -36 97 -69 23 -27 57 -54 75 -62 l33
-14 -40 -7 c-22 -4 -85 -7 -140 -8 -83 0 -97 -3 -80 -13 26 -16 3005 -16 3105
0 l65 10 -90 3 c-49 1 -119 5 -155 9 l-65 6 35 20 c28 15 71 21 226 31 318 20
403 49 349 120 -20 27 -18 84 5 139 31 73 27 102 -22 148 -89 84 -231 161
-383 206 -144 43 -240 53 -520 58 l-270 5 -176 89 c-327 163 -398 187 -628
214 -152 18 -297 18 -411 0z m315 -46 c88 -33 282 -166 354 -243 l24 -26 -37
0 c-31 0 -48 9 -94 49 -76 64 -166 125 -238 158 -92 43 -201 44 -396 3 -84
-18 -155 -34 -158 -37 -3 -3 12 -3 33 1 l37 7 0 -51 c0 -44 -2 -51 -17 -46
-42 12 -135 25 -227 32 l-99 7 119 44 c142 53 344 110 434 122 86 12 203 3
265 -20z m128 16 c131 -20 154 -34 62 -37 -101 -3 -105 -2 -165 26 -50 22 -52
25 -25 25 17 1 74 -6 128 -14z m-880 -196 c76 -5 168 -15 205 -22 l67 -12 6
-60 6 -60 1 59 2 59 33 -7 c192 -39 377 -56 617 -56 102 0 190 -4 197 -8 14
-9 43 -85 43 -111 0 -16 -6 -16 -72 -4 -67 11 -423 33 -560 33 -38 0 -58 4
-58 12 0 26 -33 48 -74 48 -50 0 -62 -7 -75 -43 -11 -29 -38 -36 -59 -15 -8 8
-12 9 -12 1 0 -6 -31 -16 -70 -23 -121 -20 -145 -62 -96 -166 33 -70 78 -118
135 -142 43 -19 93 -24 432 -42 394 -22 452 -28 447 -45 -2 -6 -157 -10 -438
-9 -239 0 -415 -1 -390 -3 25 -1 320 -17 655 -33 336 -17 620 -33 633 -36 12
-2 22 -9 22 -14 0 -14 -141 -13 -772 6 l-547 16 -44 -21 c-34 -16 -62 -21
-131 -21 -76 0 -87 2 -82 16 3 9 9 33 12 55 5 27 12 39 23 39 14 1 14 2 -1 11
-12 7 -18 22 -18 48 0 44 -25 133 -48 170 -30 49 -87 103 -135 127 -178 91
-386 -21 -421 -226 l-12 -73 -47 54 c-25 29 -53 73 -61 97 -14 41 -14 47 9
107 33 90 39 142 22 192 -11 31 -12 45 -3 52 13 11 191 40 313 50 131 12 194
12 346 0z m1953 -109 c254 -20 447 -81 608 -194 99 -69 103 -70 38 -8 -62 59
-189 134 -275 162 -71 22 -31 20 55 -4 157 -43 290 -111 396 -201 44 -38 51
-63 31 -108 -10 -23 -19 -25 -98 -32 -141 -11 -156 -17 -192 -81 -22 -38 -35
-52 -42 -45 -17 17 10 86 44 115 36 31 77 42 189 54 l85 9 -118 2 c-140 1
-177 -11 -207 -68 -54 -106 -33 -142 88 -151 69 -4 77 -7 80 -26 4 -28 -26
-32 -272 -41 -184 -6 -189 -6 -182 13 28 69 37 206 17 272 -56 189 -271 287
-446 203 -109 -51 -169 -138 -183 -263 l-7 -63 -54 -3 c-88 -5 -95 -1 -115 69
-36 130 -87 204 -172 250 -22 12 -33 27 -41 60 -6 24 -14 54 -18 67 l-7 22
338 0 c187 0 394 -5 460 -10z m-1488 -42 c21 -21 13 -27 -15 -12 -35 17 -41
17 -76 0 -26 -14 -27 -14 -17 5 8 14 21 19 53 19 24 0 48 -5 55 -12z m462 -84
c128 -16 241 -46 260 -69 7 -8 16 -13 20 -10 18 11 101 -117 86 -132 -3 -3
-22 -1 -43 4 -37 8 -38 10 -44 63 l-6 55 -1 -58 -2 -58 -42 5 c-76 10 -310 26
-367 25 -39 -1 -5 -8 114 -24 94 -13 197 -27 230 -32 l60 -8 0 -35 0 -35 -205
4 c-113 2 -281 7 -375 10 l-169 6 -43 60 c-41 59 -94 159 -107 202 -6 18 -2
22 26 29 117 26 398 25 608 -2z m-626 -76 c13 -31 46 -91 74 -133 l52 -77 -59
4 c-102 7 -188 89 -194 183 -2 34 2 41 33 62 50 35 67 27 94 -39z m1692 -11
c105 -54 146 -200 88 -308 -40 -72 -118 -119 -199 -119 -45 0 -129 43 -158 81
-36 47 -48 85 -48 145 0 171 169 278 317 201z m-2178 -2 c51 -22 81 -52 108
-110 32 -68 31 -127 -3 -196 -49 -96 -152 -141 -248 -109 -90 30 -155 138
-142 235 21 149 155 234 285 180z m1482 -188 c40 -19 58 -44 30 -41 -5 1 -35
2 -65 3 l-55 1 0 36 c0 32 2 35 23 29 12 -4 42 -16 67 -28z m274 -89 c13 -50
8 -58 -33 -58 -76 0 -97 9 -109 46 l-10 34 73 0 c67 0 73 -2 79 -22z m1216
-27 c0 -10 -127 -24 -140 -16 -26 16 -3 25 65 25 41 0 75 -4 75 -9z m15 -40
c-10 -8 -93 -31 -114 -31 -6 0 -15 9 -21 20 -10 19 -8 20 67 20 44 0 73 -4 68
-9z m-1490 -91 l390 -1 30 -24 30 -25 -840 0 -840 0 55 30 55 31 365 -6 c201
-3 541 -5 755 -5z"></path>
<path d="M1618 3283 c7 -3 16 -2 19 1 4 3 -2 6 -13 5 -11 0 -14 -3 -6 -6z"></path>
<path d="M979 3165 c-48 -8 -102 -19 -120 -24 -33 -10 -32 -11 11 -6 162 19
278 23 445 18 160 -5 188 -3 177 8 -19 20 -397 23 -513 4z"></path>
<path d="M1137 3003 c18 -2 50 -2 70 0 21 2 7 4 -32 4 -38 0 -55 -2 -38 -4z"></path>
<path d="M1034 2981 c-23 -10 -45 -25 -50 -32 -6 -11 -5 -12 7 -2 8 7 35 21
59 32 25 11 41 20 35 20 -5 0 -29 -8 -51 -18z"></path>
<path d="M1326 2960 c28 -16 68 -48 89 -72 21 -24 32 -34 24 -23 -28 42 -76
88 -111 106 -58 30 -59 22 -2 -11z"></path>
<path d="M949 2923 c-13 -16 -12 -17 4 -4 9 7 17 15 17 17 0 8 -8 3 -21 -13z"></path>
<path d="M1548 2603 c12 -2 30 -2 40 0 9 3 -1 5 -23 4 -22 0 -30 -2 -17 -4z"></path>
<path d="M3313 3023 c9 -2 23 -2 30 0 6 3 -1 5 -18 5 -16 0 -22 -2 -12 -5z"></path>
<path d="M3248 3013 c7 -3 16 -2 19 1 4 3 -2 6 -13 5 -11 0 -14 -3 -6 -6z"></path>
<path d="M3398 3013 c7 -3 16 -2 19 1 4 3 -2 6 -13 5 -11 0 -14 -3 -6 -6z"></path>
<path d="M3605 3010 c12 -20 161 -115 215 -137 56 -23 190 -33 190 -14 0 13
-85 74 -147 105 -29 14 -81 33 -115 41 -74 17 -152 20 -143 5z m84 -10 c19 -5
60 -28 92 -50 40 -28 77 -44 124 -54 79 -17 108 -36 53 -36 -59 0 -158 36
-245 90 -101 62 -107 74 -24 50z"></path>
<path d="M3160 2984 c-25 -14 -54 -34 -65 -44 -11 -10 -36 -23 -55 -28 -31 -9
-32 -10 -9 -11 15 -1 42 12 65 30 22 18 62 42 89 55 28 13 43 24 35 24 -8 0
-35 -12 -60 -26z"></path>
<path d="M3500 2979 c91 -86 120 -110 101 -83 -13 18 -35 40 -50 51 -26 19
-60 40 -51 32z"></path>
<path d="M3644 2806 c12 -30 23 -52 25 -50 5 5 -29 93 -38 99 -5 2 1 -20 13
-49z"></path>
<path d="M3671 2704 c0 -11 3 -14 6 -6 3 7 2 16 -1 19 -3 4 -6 -2 -5 -13z"></path>
<path d="M2128 2803 c6 -2 18 -2 25 0 6 3 1 5 -13 5 -14 0 -19 -2 -12 -5z"></path>
<path d="M3304 2890 c-135 -30 -202 -191 -131 -312 80 -137 265 -129 338 14
27 54 26 142 -4 199 -38 71 -129 116 -203 99z m23 -87 c-2 -16 -4 -5 -4 22 0
28 2 40 4 28 2 -13 2 -35 0 -50z m20 -25 c-2 -13 -4 -3 -4 22 0 25 2 35 4 23
2 -13 2 -33 0 -45z m120 -29 c-22 -11 -41 -18 -44 -15 -4 3 9 12 28 20 50 22
60 18 16 -5z m-223 -14 c16 -7 30 -20 32 -28 2 -14 -3 -14 -37 -2 -53 19 -79
34 -59 35 13 0 13 1 0 11 -18 12 16 4 64 -16z m221 -10 c-65 -31 -83 -31 -25
0 25 13 52 24 60 24 8 0 -7 -11 -35 -24z m-102 -26 c23 -37 -25 -68 -52 -35
-9 11 -10 20 -1 36 13 24 38 23 53 -1z m102 -41 c-10 -46 -16 -53 -27 -34 -7
12 -5 25 6 42 22 33 29 30 21 -8z m-164 -32 c5 3 9 2 9 -1 0 -10 -60 -95 -67
-95 -4 0 -2 5 5 12 7 7 12 17 12 23 -1 5 -10 -1 -20 -14 -30 -35 -24 -17 13
39 17 27 34 45 35 39 2 -5 8 -7 13 -3z m117 -37 c14 -24 14 -24 -7 1 -29 35
-26 12 4 -33 14 -20 22 -37 18 -37 -8 0 -63 81 -63 93 0 15 35 -3 48 -24z"></path>
<path d="M3219 2725 c18 -8 38 -15 45 -15 6 1 -4 7 -23 15 -18 8 -38 15 -45
15 -6 -1 4 -7 23 -15z"></path>
<path d="M3272 2600 c-18 -29 -15 -38 4 -12 9 13 14 25 12 27 -2 2 -9 -5 -16
-15z"></path>
<path d="M1148 2880 c-56 -17 -97 -51 -122 -102 -34 -68 -34 -128 0 -196 64
-129 228 -139 311 -19 25 35 28 50 28 116 0 67 -3 81 -28 117 -44 64 -129 102
-189 84z m19 -112 c-2 -18 -4 -4 -4 32 0 36 2 50 4 33 2 -18 2 -48 0 -65z m20
10 c-2 -13 -4 -3 -4 22 0 25 2 35 4 23 2 -13 2 -33 0 -45z m108 -43 c-27 -13
-54 -24 -60 -24 -5 1 13 11 40 24 28 13 55 24 60 24 6 -1 -12 -11 -40 -24z
m-195 -6 c10 -6 5 -8 -15 -4 l-30 5 33 -12 c17 -6 32 -15 32 -19 0 -4 -21 0
-46 9 -29 11 -40 18 -29 21 15 2 15 5 4 13 -17 12 29 0 51 -13z m230 -3 c-14
-7 -36 -16 -50 -20 -14 -3 -7 3 15 14 45 22 74 27 35 6z m-125 -45 c0 -34 -32
-52 -50 -27 -19 25 -2 58 28 54 16 -2 22 -10 22 -27z m-70 -90 c-23 -44 -39
-61 -51 -53 -15 9 28 79 49 79 14 0 14 -4 2 -26z m85 18 c0 -5 4 -8 9 -4 5 3
18 -7 29 -22 30 -44 36 -57 24 -49 -5 3 -12 1 -14 -6 -2 -6 -18 12 -36 40 -17
29 -27 52 -22 52 6 0 10 -5 10 -11z"></path>
<path d="M1107 2581 c-9 -16 -17 -33 -17 -38 0 -4 9 7 21 26 11 18 18 35 17
37 -2 2 -12 -10 -21 -25z"></path>
<path d="M1230 2595 c0 -5 9 -21 20 -35 11 -14 20 -20 20 -15 0 6 -9 21 -20
35 -11 14 -20 21 -20 15z"></path>
</g>
</svg>
